<?xml version="1.0" encoding="UTF-8" standalone="no"?>
<svg width="56px" height="56px" viewBox="0 0 56 56" version="1.1" xmlns="http://www.w3.org/2000/svg" xmlns:xlink="http://www.w3.org/1999/xlink">
    <!-- Generator: Sketch 40.3 (33839) - http://www.bohemiancoding.com/sketch -->
    <title>anchor</title>
    <desc>Created with Sketch.</desc>
    <defs></defs>
    <g id="Page-1" stroke="none" stroke-width="1" fill="none" fill-rule="evenodd">
        <g id="anchor">
            <g id="layer1" transform="translate(0.004390, 0.315156)">
                <path d="M5.50022989,27.4362647 L5.52758621,28.468 C5.74257471,33.0562941 7.38331034,37.5795588 10.2116322,41.1917647 L10.8163678,41.9336176 L7.37011494,45.8217941 L6.52786207,44.869 C-8.05144828,27.4113529 3.53443678,1.59338235 26.3985287,0.215147059 L27.8464828,0.188941176 L29.2674023,0.215147059 C52.1456552,1.60405882 63.7173793,27.3971176 49.1377471,44.869 L48.2967816,45.8217941 L44.8482759,41.9336176 L45.453977,41.1917647 L46.0326437,40.4253235 C54.0251954,29.0137941 50.0028506,13.3080588 37.5058391,7.19885294 L36.5303448,6.74947059 L35.5052874,6.35314706 C21.8416092,1.32420588 7.10974713,10.5959118 5.63250575,25.135 L5.55397701,26.2718824 L5.50022989,27.4362647" id="path215" fill="#00B9F2"></path>
                <path d="M20.766023,24.5526471 L25.1092414,24.5526471 L25.1092414,23.9971471 L24.7146667,23.8120882 L24.3461609,23.5733235 C19.2511264,20.0973235 21.5413333,12.6299412 27.504046,12.2514118 L28.1618851,12.2514118 C34.122023,12.6299412 36.4254253,20.1067059 31.3207356,23.5733235 L30.9512644,23.8120882 L30.5566897,23.9971471 L30.5566897,24.5526471 L34.899908,24.5526471 L34.899908,27.8856471 L30.5566897,27.8856471 L30.5566897,49.6840882 L31.3455172,49.5776471 C34.9365977,49.0282941 38.3651494,47.531 41.2694253,45.3455588 L41.8741609,44.869 L45.1388966,48.7044412 L44.2432184,49.3922647 C34.4757241,56.4141471 21.1924598,56.4102647 11.4227126,49.3922647 L10.5283218,48.7044412 L13.7917701,44.869 L14.3977931,45.3455588 C17.3081839,47.5190294 20.7245057,49.0341176 24.3191264,49.5776471 L25.1092414,49.6840882 L25.1092414,27.8856471 L20.766023,27.8856471 L20.766023,24.5526471 L20.766023,24.5526471 Z M25.3992184,18.4421471 L25.4252874,18.6796176 L25.4513563,18.9170882 C26.0667126,21.6470294 29.9168736,21.4690882 30.2425747,18.6796176 L30.2673563,18.4421471 L30.2425747,18.1771765 C29.930069,15.4006471 26.0538391,15.2262647 25.4513563,17.9397059 L25.4252874,18.1768529 L25.3992184,18.4421471 L25.3992184,18.4421471 Z" id="path219" fill="#072B52"></path>
            </g>
        </g>
    </g>
</svg>