<?xml version="1.0" encoding="utf-8"?>
<!-- Generator: Adobe Illustrator 15.1.0, SVG Export Plug-In . SVG Version: 6.00 Build 0)  -->
<!DOCTYPE svg PUBLIC "-//W3C//DTD SVG 1.1//EN" "http://www.w3.org/Graphics/SVG/1.1/DTD/svg11.dtd">
<svg version="1.1" id="svg2772" xmlns:svg="http://www.w3.org/2000/svg"
	 xmlns="http://www.w3.org/2000/svg" xmlns:xlink="http://www.w3.org/1999/xlink" x="0px" y="0px" width="618.815px"
	 height="53.054px" viewBox="55.757 80.096 618.815 53.054" enable-background="new 55.757 80.096 618.815 53.054"
	 xml:space="preserve">
<g id="layer1" transform="translate(256.01364,-214.02588)">
	<path id="path243" fill="#072B52" d="M-48.067,345.421h12.923v-20.604h16.927v20.604h12.922v-49.552h-12.922v18.233h-16.927
		v-18.233h-12.923V345.421"/>
	<path id="path247" fill="#072B52" d="M8.931,345.421h12.104v-31.152l17.418,31.152h13.166v-49.552H39.515v30.746l-17.337-30.746
		H8.931V345.421"/>
	<path id="path251" fill="#072B52" d="M65.851,345.421h37.372v-10.63H78.77v-9.896h20.367v-10.055H78.77v-8.833h23.391v-10.139
		h-36.31V345.421"/>
	<path id="path255" fill="#072B52" d="M321.491,340.021v-22.157h-20.692v9.481h8.342v7.279l-0.568,0.409l-0.738,0.325
		c-13.812,5.071-20.139-4.381-18.976-17.662l0.166-1.388l0.247-1.473c0.879-10.014,12.479-13.989,17.418-6.378l0.654,1.226
		l0.49,1.311h13.081l-0.162-1.063l-0.243-0.981c-5.954-21.354-39.151-19.249-43.836,3.761l-0.243,1.229l-0.247,1.307
		c-3.799,27.757,19.164,39.531,42.605,26.819l1.554-1.145L321.491,340.021"/>
	<path id="path259" fill="#072B52" d="M334.247,345.421h37.376v-10.63H347.17v-9.896h20.363v-10.055H347.17v-8.833h23.387v-10.139
		h-36.31V345.421"/>
	<path id="path263" fill="#072B52" d="M383.313,345.421h35.246v-10.63H396.15v-38.922h-12.838V345.421"/>
	<path id="path267" fill="#072B52" d="M170.526,345.421h12.103v-31.152l17.418,31.152h13.248v-49.552H201.11v30.746l-17.337-30.746
		h-13.247V345.421"/>
	<path id="path271" fill="#072B52" d="M240.938,295.869h11.859l19.953,49.552h-14.313l-3.271-9.242h-19.382l-3.271,9.242h-13.251
		l19.877-49.552H240.938z M251.814,326.611l-6.216-17.661l-6.382,17.661H251.814"/>
	<path id="path275" fill="#00B9F2" d="M140.267,345.421h-7.522v-19.625h-19.301v-6.95h19.301v-19.622h7.522v19.622h19.301v6.95
		h-19.301V345.421"/>
	<path id="path279" fill="#072B52" d="M-95.334,344.927h37.291v-10.546h-24.373v-9.977h20.364v-9.977h-20.364v-8.829h23.391v-10.221
		h-36.309V344.927"/>
	<path id="path283" fill="#072B52" d="M-172.615,295.869h14.801l-16.274,19.787l18.481,29.765h-15.617l-11.04-19.872l-4.828,5.806
		v14.066h-13.166v-49.552h13.166v19.459L-172.615,295.869"/>
	<path id="path287" fill="#072B52" d="M-107.356,295.869h-12.919v30.17l-0.084,1.145c-0.089,4.961-2.252,8.136-7.441,8.423
		l-1.144,0.082l-1.145-0.082c-5.182-0.229-7.341-3.521-7.526-8.423v-31.314h-12.919v29.27c-3.222,29.094,46.305,29.057,43.178,0
		V295.869"/>
</g>
</svg>
